<svg
  viewBox="0 0 1440 420"
  preserveAspectRatio="none"
  version="1.1"
  xmlns="http://www.w3.org/2000/svg"
>
  <path
    fill="#ffffff"
    d="M0,42L80,98C160,154,320,266,480,301C640,336,800,294,960,252C1120,210,1280,168,1440,147C1600,126,1760,126,1920,133C2080,140,2240,154,2400,175C2560,196,2720,224,2880,231C3040,238,3200,224,3360,182C3520,140,3680,70,3840,91C4000,112,4160,224,4320,273C4480,322,4640,308,4800,273C4960,238,5120,182,5280,189C5440,196,5600,266,5760,252C5920,238,6080,140,6240,147C6400,154,6560,266,6720,259C6880,252,7040,126,7200,63C7360,0,7520,0,7680,49C7840,98,8000,196,8160,231C8320,266,8480,238,8640,252C8800,266,8960,322,9120,350C9280,378,9440,378,9600,357C9760,336,9920,294,10080,266C10240,238,10400,224,10560,189C10720,154,10880,98,11040,112C11200,126,11360,210,11440,252L11520,294L11520,420L11440,420C11360,420,11200,420,11040,420C10880,420,10720,420,10560,420C10400,420,10240,420,10080,420C9920,420,9760,420,9600,420C9440,420,9280,420,9120,420C8960,420,8800,420,8640,420C8480,420,8320,420,8160,420C8000,420,7840,420,7680,420C7520,420,7360,420,7200,420C7040,420,6880,420,6720,420C6560,420,6400,420,6240,420C6080,420,5920,420,5760,420C5600,420,5440,420,5280,420C5120,420,4960,420,4800,420C4640,420,4480,420,4320,420C4160,420,4000,420,3840,420C3680,420,3520,420,3360,420C3200,420,3040,420,2880,420C2720,420,2560,420,2400,420C2240,420,2080,420,1920,420C1760,420,1600,420,1440,420C1280,420,1120,420,960,420C800,420,640,420,480,420C320,420,160,420,80,420L0,420Z"
  ></path>
</svg>