<svg xmlns="http://www.w3.org/2000/svg" viewBox="0 0 1440 320" preserveAspectRatio="none">
  <path fill="#ffffff" fill-opacity="1"
    d="M0,64L40,96C80,128,160,192,240,218.7C320,245,400,235,480,213.3C560,192,640,160,720,170.7C800,181,880,235,960,250.7C1040,267,1120,245,1200,197.3C1280,149,1360,75,1400,37.3L1440,0L1440,320L1400,320C1360,320,1280,320,1200,320C1120,320,1040,320,960,320C880,320,800,320,720,320C640,320,560,320,480,320C400,320,320,320,240,320C160,320,80,320,40,320L0,320Z"></path>
</svg>